<svg xmlns="http://www.w3.org/2000/svg" viewBox="0 0 512 512">
  <defs>
    <radialGradient id="bg" cx="50%" cy="40%" r="55%">
      <stop offset="0%" stop-color="#1a2744"/>
      <stop offset="100%" stop-color="#0a0f1a"/>
    </radialGradient>
    <radialGradient id="ball" cx="40%" cy="35%" r="60%">
      <stop offset="0%" stop-color="#ffffff"/>
      <stop offset="100%" stop-color="#d4d4d8"/>
    </radialGradient>
  </defs>
  <rect width="512" height="512" rx="108" fill="url(#bg)"/>
  <circle cx="256" cy="256" r="170" fill="url(#ball)" stroke="#94a3b8" stroke-width="4"/>
  <!-- Center pentagon -->
  <path d="M256 176 l30 22 12 36 -26 30h-32l-26-30 12-36z" fill="#1e293b" stroke="#1e293b" stroke-width="2" stroke-linejoin="round"/>
  <!-- Top pentagon -->
  <path d="M256 86 l24 18 10 28-20 24h-28l-20-24 10-28z" fill="#1e293b" stroke="#1e293b" stroke-width="2" stroke-linejoin="round"/>
  <!-- Top-right pentagon -->
  <path d="M354 148 l24 18 10 28-20 24h-28l-20-24 10-28z" fill="#1e293b" stroke="#1e293b" stroke-width="2" stroke-linejoin="round"/>
  <!-- Top-left pentagon -->
  <path d="M158 148 l24 18 10 28-20 24h-28l-20-24 10-28z" fill="#1e293b" stroke="#1e293b" stroke-width="2" stroke-linejoin="round"/>
  <!-- Bottom-left pentagon -->
  <path d="M142 290 l24 18 10 28-20 24h-28l-20-24 10-28z" fill="#1e293b" stroke="#1e293b" stroke-width="2" stroke-linejoin="round"/>
  <!-- Bottom-right pentagon -->
  <path d="M370 290 l24 18 10 28-20 24h-28l-20-24 10-28z" fill="#1e293b" stroke="#1e293b" stroke-width="2" stroke-linejoin="round"/>
  <!-- Bottom pentagon -->
  <path d="M256 370 l24 18 10 28-20 24h-28l-20-24 10-28z" fill="#1e293b" stroke="#1e293b" stroke-width="2" stroke-linejoin="round"/>
  <!-- Seams from center -->
  <line x1="256" y1="176" x2="256" y2="132" stroke="#94a3b8" stroke-width="3"/>
  <line x1="286" y1="198" x2="330" y2="194" stroke="#94a3b8" stroke-width="3"/>
  <line x1="226" y1="198" x2="182" y2="194" stroke="#94a3b8" stroke-width="3"/>
  <line x1="272" y1="264" x2="304" y2="308" stroke="#94a3b8" stroke-width="3"/>
  <line x1="240" y1="264" x2="208" y2="308" stroke="#94a3b8" stroke-width="3"/>
  <!-- Outer seams -->
  <line x1="256" y1="86" x2="314" y2="120" stroke="#94a3b8" stroke-width="3"/>
  <line x1="256" y1="86" x2="198" y2="120" stroke="#94a3b8" stroke-width="3"/>
  <line x1="378" y1="166" x2="394" y2="232" stroke="#94a3b8" stroke-width="3"/>
  <line x1="134" y1="166" x2="118" y2="232" stroke="#94a3b8" stroke-width="3"/>
  <line x1="394" y1="308" x2="340" y2="360" stroke="#94a3b8" stroke-width="3"/>
  <line x1="118" y1="308" x2="172" y2="360" stroke="#94a3b8" stroke-width="3"/>
  <line x1="280" y1="416" x2="256" y2="426" stroke="#94a3b8" stroke-width="3"/>
  <line x1="232" y1="416" x2="256" y2="426" stroke="#94a3b8" stroke-width="3"/>
  <!-- Club text -->
  <text x="256" y="480" text-anchor="middle" font-family="Arial Black,Arial,sans-serif" font-size="42" font-weight="900" fill="#22d3ee" letter-spacing="2">DYNAMO</text>
</svg>
