<svg xmlns="http://www.w3.org/2000/svg" viewBox="0 0 512 512">
  <rect width="512" height="512" rx="112" fill="#daf0f7"/>
  <defs>
    <radialGradient id="bl" cx="38%" cy="35%" r="55%">
      <stop offset="0%" stop-color="#ffffff"/>
      <stop offset="100%" stop-color="#e0e7ec"/>
    </radialGradient>
    <filter id="sh">
      <feDropShadow dx="0" dy="6" stdDeviation="12" flood-color="#0e7490" flood-opacity="0.25"/>
    </filter>
  </defs>
  <circle cx="256" cy="240" r="160" fill="url(#bl)" stroke="#b8d4de" stroke-width="3" filter="url(#sh)"/>
  <!-- Center pentagon -->
  <path d="M256 176 L282 195 L272 224 L240 224 L230 195 Z" fill="#0e7490"/>
  <!-- Top -->
  <path d="M256 80 L276 96 L268 120 L244 120 L236 96 Z" fill="#0e7490"/>
  <!-- Top-right -->
  <path d="M348 140 L364 160 L352 184 L330 180 L326 156 Z" fill="#0e7490"/>
  <!-- Top-left -->
  <path d="M164 140 L168 156 L148 160 L160 184 L182 180 Z" fill="#0e7490"/>
  <!-- Bottom-right -->
  <path d="M340 276 L358 260 L354 236 L334 228 L322 248 Z" fill="#0e7490"/>
  <!-- Bottom-left -->
  <path d="M172 276 L190 248 L178 228 L158 236 L154 260 Z" fill="#0e7490"/>
  <!-- Bottom -->
  <path d="M256 368 L276 352 L268 328 L244 328 L236 352 Z" fill="#0e7490"/>
  <!-- Seams -->
  <path d="M240 224 L220 248 M272 224 L292 248 M230 195 L210 176 M282 195 L302 176 M256 176 L256 120 M236 96 L210 110 M276 96 L302 110 M326 156 L310 175 M168 156 L202 175 M348 180 L328 200 M164 180 L184 200 M322 248 L300 264 M190 248 L212 264 M340 276 L320 300 M172 276 L192 300 M268 328 L280 310 M244 328 L232 310 M276 352 L290 340 M236 352 L222 340" fill="none" stroke="#b8d4de" stroke-width="2.5" stroke-linecap="round"/>
  <!-- Text -->
  <text x="256" y="450" text-anchor="middle" font-family="Arial Black,Arial,sans-serif" font-size="44" font-weight="900" fill="#0e7490" letter-spacing="4">DYNAMO</text>
</svg>
